<?xml version="1.0" standalone="no"?>
<!DOCTYPE svg PUBLIC "-//W3C//DTD SVG 20010904//EN"
 "http://www.w3.org/TR/2001/REC-SVG-20010904/DTD/svg10.dtd">
<svg version="1.0" xmlns="http://www.w3.org/2000/svg"
 width="1280.000000pt" height="1280.000000pt" viewBox="0 0 1280.000000 1280.000000"
 preserveAspectRatio="xMidYMid meet">

<g transform="translate(0.000000,1280.000000) scale(0.100000,-0.100000)"
fill="#000" stroke="none">
<path d="M4867 9196 c-95 -35 -160 -104 -211 -219 l-31 -72 0 -220 c1 -210 2
-227 34 -375 66 -312 184 -679 327 -1018 20 -46 33 -89 31 -96 -3 -8 -35 -15
-84 -19 -251 -19 -771 -132 -1058 -228 -260 -88 -430 -180 -546 -298 -72 -74
-103 -129 -120 -213 -10 -49 -9 -65 11 -130 49 -167 194 -301 480 -444 235
-119 544 -216 995 -313 154 -34 160 -36 163 -54 2 -9 -8 -45 -22 -79 -57 -144
-183 -596 -169 -608 15 -13 211 -19 221 -7 5 7 16 41 26 77 10 36 39 126 66
200 113 312 143 378 177 386 13 4 67 -1 121 -10 541 -90 1684 -90 2237 -1 140
23 141 23 170 -35 14 -27 36 -78 49 -112 13 -35 45 -119 71 -188 252 -667 306
-1209 135 -1353 -38 -32 -81 -41 -173 -35 -181 12 -458 184 -786 487 -178 165
-551 586 -551 622 0 9 32 61 72 115 113 156 240 345 234 351 -2 3 -25 -24 -51
-59 -195 -269 -272 -368 -285 -367 -14 0 -109 120 -258 326 -37 51 -71 93 -75
93 -14 0 70 -128 206 -313 92 -126 104 -150 86 -175 -107 -148 -601 -660 -744
-771 -134 -104 -326 -227 -405 -260 -200 -85 -340 -69 -402 46 -27 49 -48 139
-48 204 0 43 -11 54 -65 62 -22 3 -57 9 -78 13 l-39 7 7 -59 c19 -157 85 -318
154 -374 19 -17 58 -41 87 -55 44 -21 65 -25 148 -25 87 0 105 3 188 36 104
41 163 75 263 147 282 206 638 577 938 980 15 20 32 37 36 37 4 0 50 -54 101
-120 368 -477 774 -867 1040 -1000 130 -65 194 -83 295 -83 78 0 97 4 143 27
68 34 133 99 167 166 91 179 99 516 20 900 -48 236 -133 543 -199 715 -15 39
-30 78 -33 87 -5 18 11 24 142 52 237 50 361 79 369 87 5 4 0 29 -13 58 -11
27 -21 67 -21 88 0 22 -6 47 -13 57 -12 17 -18 16 -127 -3 -211 -37 -368 -61
-405 -61 -33 0 -38 4 -55 43 -234 541 -361 792 -645 1272 -111 188 -471 713
-557 813 -49 57 -51 53 129 279 89 112 324 372 424 470 185 180 381 323 520
381 84 34 185 41 240 17 52 -24 103 -100 129 -195 16 -62 20 -104 20 -245 0
-302 -60 -613 -194 -1015 -135 -404 -135 -405 -174 -396 -35 8 -219 24 -357
31 -156 7 -92 -11 110 -30 177 -18 252 -29 261 -38 4 -4 -4 -30 -16 -59 -63
-145 -129 -312 -126 -316 5 -4 122 228 154 306 11 29 29 55 38 59 44 17 621
-103 864 -179 338 -106 607 -244 738 -378 76 -79 103 -191 63 -268 -41 -81
-181 -191 -306 -242 -52 -21 -56 -25 -52 -49 8 -41 41 -129 53 -141 27 -27
291 156 367 255 44 57 92 154 102 207 16 85 -43 215 -143 315 -159 159 -503
301 -987 406 -287 62 -467 93 -598 104 -43 3 -80 9 -82 14 -3 4 13 54 36 111
164 410 254 692 320 1003 27 129 32 176 36 340 4 154 2 203 -11 253 -34 135
-105 233 -202 281 -67 34 -198 41 -292 16 -241 -63 -560 -284 -897 -620 -72
-71 -182 -188 -244 -260 -62 -71 -119 -133 -126 -137 -8 -5 -45 30 -106 100
-110 127 -411 432 -424 432 -6 0 -41 -34 -78 -75 l-69 -75 133 -148 c144 -159
322 -379 346 -426 18 -35 11 -53 -49 -129 -129 -162 -371 -517 -507 -742 -87
-145 -331 -571 -331 -579 0 -2 -47 -100 -104 -218 -100 -205 -216 -467 -216
-486 0 -25 -43 -62 -72 -62 -35 0 -412 61 -558 90 -286 57 -610 164 -769 255
-227 128 -297 250 -226 391 31 60 45 76 115 135 165 140 453 267 830 368 148
40 254 63 558 121 57 11 108 22 112 25 5 3 20 3 34 -1 19 -4 30 -19 45 -57 35
-92 217 -467 197 -407 -11 34 -86 219 -109 270 -85 185 -88 195 -59 204 31 9
144 25 271 37 69 6 143 17 165 25 l41 13 -50 -4 c-27 -3 -115 -9 -195 -15 -80
-6 -167 -15 -195 -20 -28 -4 -57 -4 -66 1 -18 9 -61 125 -164 434 -81 246
-122 411 -156 640 -28 183 -30 467 -4 565 23 89 62 158 109 192 34 24 48 28
106 28 66 0 146 -20 185 -47 34 -23 53 -15 76 30 12 23 30 53 41 66 25 33 14
42 -82 71 -95 29 -257 37 -313 16z m1710 -1728 c345 -523 561 -896 824 -1423
84 -168 129 -269 127 -285 -3 -24 -6 -25 -123 -37 -471 -45 -1784 -42 -2095 5
-31 5 -46 12 -48 24 -4 19 297 617 398 793 35 61 90 157 123 215 215 376 588
950 617 950 12 0 71 -81 177 -242z"/>
<path d="M5490 9101 c-75 -23 -138 -81 -160 -146 -7 -21 -10 -64 -8 -96 14
-187 263 -270 383 -127 71 83 81 176 31 262 -48 83 -163 132 -246 107z"/>
<path d="M8695 6048 c-99 -36 -155 -113 -155 -214 1 -102 45 -167 144 -208
150 -62 326 78 301 239 -19 131 -170 226 -290 183z"/>
<path d="M4651 4660 c-40 -17 -101 -70 -118 -104 -10 -19 -17 -57 -17 -101 -1
-86 19 -131 82 -183 43 -35 50 -37 126 -40 78 -4 83 -3 131 30 100 67 131 183
78 289 -41 80 -94 113 -186 116 -40 2 -83 -2 -96 -7z"/>
</g>
</svg>
